<?xml version="1.0" ?><!DOCTYPE svg  PUBLIC '-//W3C//DTD SVG 1.1//EN'  'http://www.w3.org/Graphics/SVG/1.1/DTD/svg11.dtd'><svg id="Lager_1" style="enable-background:new 0 0 100 100;" version="1.1" viewBox="0 0 100 100" xml:space="preserve" xmlns="http://www.w3.org/2000/svg" xmlns:xlink="http://www.w3.org/1999/xlink"><g><path d="M50,88c-1.2,0-2.2-0.6-2.8-1.6L43,79.2l-0.4-0.1c-2.5-0.6-5-1.5-7.3-2.6L35,76.3l-12.8,3.4   c-0.3,0.1-0.5,0.1-0.8,0.1c-0.9,0-1.8-0.4-2.3-1.2c-0.6-0.7-0.7-1.7-0.5-2.6l3.3-12.3l-0.2-0.4c-2.4-4.4-3.7-9.4-3.7-14.5   c0-4.4,0.9-8.6,2.8-12.6l0.2-0.3l-4.3-16c-0.3-1-0.1-2,0.5-2.8c0.6-0.8,1.6-1.3,2.5-1.3c0.3,0,0.6,0,0.9,0.1l16.7,4.5l0.3-0.1   c2.1-0.9,4.3-1.5,6.7-1.9l0.5-0.1l2.8-4.9C48,12.6,48.9,12,50,12c1.1,0,2,0.6,2.6,1.5l2.8,4.9l0.5,0.1c2.3,0.4,4.5,1.1,6.7,1.9   l0.3,0.1L79.5,16c0.3-0.1,0.6-0.1,0.9-0.1c1,0,1.9,0.5,2.5,1.3c0.6,0.8,0.8,1.8,0.5,2.8l-4.3,16l0.2,0.3c1.8,4,2.8,8.2,2.8,12.6   c0,5-1.3,10-3.7,14.5l-0.2,0.4l3.3,12.3c0.2,0.9,0.1,1.8-0.5,2.6c-0.6,0.7-1.4,1.2-2.3,1.2l0,0c-0.3,0-0.5,0-0.8-0.1L65,76.3   l-0.3,0.2c-2.3,1.2-4.8,2-7.3,2.6L57,79.2l-4.2,7.2C52.2,87.4,51.2,88,50,88z M63,38.9c-5,0-9,3.1-9,7c0,3.9,4,7,9,7s9-3.1,9-7   C72,42.1,68,38.9,63,38.9z M37,38.9c-5,0-9,3.1-9,7c0,3.9,4,7,9,7s9-3.1,9-7C46,42.1,42,38.9,37,38.9z" style="fill:#E5D87F;"/><path d="M50,13c0.3,0,1.2,0.1,1.7,1l2.6,4.5l0.5,0.8l0.9,0.2c2.2,0.4,4.4,1,6.5,1.9l0.6,0.3l0.7-0.2L79.7,17   c0.2-0.1,0.4-0.1,0.6-0.1c0.7,0,1.3,0.3,1.7,0.9c0.2,0.3,0.6,1,0.4,1.9l-4.2,15.7L78,36.1l0.3,0.7c1.8,3.8,2.7,7.9,2.7,12.2   c0,4.9-1.2,9.7-3.6,14L77,63.6l0.2,0.8l3.2,11.9c0.2,0.8-0.1,1.4-0.3,1.7c-0.4,0.5-1,0.8-1.6,0.8c-0.2,0-0.4,0-0.5-0.1l-12.4-3.3   l-0.7-0.2l-0.7,0.3c-2.2,1.1-4.6,2-7.1,2.5l-0.9,0.2L55.9,79l-4,6.8c-0.6,1-1.5,1.1-1.9,1.1s-1.3-0.1-1.9-1.1l-4-6.8l-0.4-0.8   l-0.9-0.2c-2.4-0.6-4.8-1.4-7.1-2.5l-0.7-0.3l-0.7,0.2L22,78.7c-0.2,0-0.4,0.1-0.5,0.1c-0.6,0-1.2-0.3-1.6-0.8   c-0.2-0.3-0.6-0.9-0.3-1.7l3.2-11.9l0.2-0.8l-0.4-0.7c-2.3-4.3-3.6-9.1-3.6-14c0-4.2,0.9-8.3,2.7-12.2l0.3-0.7l-0.2-0.7l-4.2-15.7   c-0.2-0.9,0.1-1.6,0.4-1.9c0.4-0.6,1.1-0.9,1.7-0.9c0.2,0,0.4,0,0.6,0.1l16.3,4.4l0.7,0.2l0.6-0.3c2-0.8,4.2-1.5,6.5-1.9l0.9-0.2   l0.5-0.8l2.6-4.5C48.8,13.1,49.7,13,50,13 M63,53.9c5.5,0,10-3.6,10-8s-4.5-8-10-8s-10,3.6-10,8S57.5,53.9,63,53.9 M37,53.9   c5.5,0,10-3.6,10-8s-4.5-8-10-8s-10,3.6-10,8S31.5,53.9,37,53.9 M50,11c-1.3,0-2.7,0.7-3.4,2L44,17.4c-2.4,0.4-4.7,1.1-6.9,2   l-16.3-4.4c-0.4-0.1-0.7-0.1-1.1-0.1c-2.7,0-4.8,2.6-4.1,5.3l4.2,15.7c-1.8,4-2.8,8.4-2.8,13c0,5.4,1.4,10.5,3.8,15l-3.2,11.9   c-0.7,2.6,1.3,5,3.8,5c0.3,0,0.7,0,1-0.1l12.4-3.3c2.4,1.2,4.9,2.1,7.5,2.7l4,6.8c0.8,1.4,2.2,2.1,3.6,2.1s2.8-0.7,3.6-2.1l4-6.8   c2.6-0.6,5.2-1.5,7.5-2.7l12.4,3.3c0.4,0.1,0.7,0.1,1,0.1c2.5,0,4.5-2.4,3.8-5l-3.2-11.9c2.4-4.5,3.8-9.5,3.8-15c0-4.6-1-9-2.8-13   l4.2-15.7c0.7-2.8-1.4-5.3-4.1-5.3c-0.4,0-0.7,0-1.1,0.1l-16.3,4.4c-2.2-0.9-4.5-1.6-6.9-2L53.4,13C52.7,11.7,51.3,11,50,11L50,11z    M63,51.9c-4.4,0-8-2.7-8-6c0-3.3,3.6-6,8-6s8,2.7,8,6C71,49.3,67.4,51.9,63,51.9L63,51.9z M37,51.9c-4.4,0-8-2.7-8-6   c0-3.3,3.6-6,8-6s8,2.7,8,6C45,49.3,41.4,51.9,37,51.9L37,51.9z" style="fill:#A59E59;"/></g></svg>